#!OML:ASF F:\VICON\USERDATA\INSTALL\rory3\rory3.ASF
:FULLY-SPECIFIED
:DEGREES
1803
root -0.535116 17.5518 -5.16295 1.12386 24.7351 -1.28925
lowerback 5.0193 -2.29084 -5.41073
upperback 0.733617 -3.32854 0.507663
thorax -1.7162 -1.62789 3.76058
lowerneck -24.5051 -7.26391 -12.9143
upperneck 26.964 -7.49587 6.973
head 14.1102 -3.62105 3.50058
rclavicle 5.76476e-014 5.1684e-015
rhumerus 21.0429 -13.1989 -51.6407
rradius 72.2545
rwrist 50.3819
rhand -66.8795 -35.0238
rfingers 7.12502
rthumb -38.6732 -60.6367
lclavicle 5.76476e-014 5.1684e-015
lhumerus 15.4934 -13.0351 67.6508
lradius 71.3434
lwrist -31.5677
lhand -35.9748 28.0795
lfingers 7.12502
lthumb -9.08548 -302.136
rfemur -28.0321 -0.367692 17.3829
rtibia 31.8735
rfoot -4.13588 -5.55572
rtoes 17.7538
lfemur 9.88043 -7.172 -13.6544
ltibia 24.194
lfoot -12.9195 -5.83394
ltoes -34.9566
1804
root -0.552865 17.5638 -5.08476 1.19502 25.0271 -1.33317
lowerback 5.11041 -2.30754 -5.22306
upperback 0.715614 -3.34706 0.469435
thorax -1.79696 -1.63541 3.62234
lowerneck -24.3011 -7.34721 -12.8995
upperneck 27.1428 -7.6337 6.89012
head 14.1581 -3.69624 3.4423
rclavicle -3.17559e-014 -1.19271e-014
rhumerus 21.4185 -13.3974 -51.1718
rradius 71.0459
rwrist 50.1665
rhand -66.6472 -34.8316
rfingers 7.12502
rthumb -38.454 -60.5059
lclavicle -3.17559e-014 -1.19271e-014
lhumerus 13.485 -13.1798 68.4516
lradius 71.2185
lwrist -31.4077
lhand -36.162 28.3483
lfingers 7.12502
lthumb -9.26614 -301.875
rfemur -27.8952 -0.563268 17.606
rtibia 31.9467
rfoot -4.41834 -5.48988
rtoes 17.0759
lfemur 9.55468 -7.44972 -13.3827
ltibia 24.7329
lfoot -12.3339 -6.18243
ltoes -35.2096
1805
root -0.568503 17.5787 -5.0055 1.4089 25.336 -1.23278
lowerback 5.08434 -2.34582 -5.15228
upperback 0.72257 -3.39324 0.425927
thorax -1.77737 -1.65957 3.5387
lowerneck -24.1527 -7.42116 -12.9568
upperneck 27.2636 -7.72497 6.83099
head 14.1917 -3.75381 3.41315
rclavicle 3.30976e-014 -3.18055e-015
rhumerus 21.9382 -13.62 -50.5863
rradius 69.7733
rwrist 49.8381
rhand -66.5183 -34.3595
rfingers 7.12502
rthumb -38.3323 -60.0675
lclavicle 3.30976e-014 -3.18055e-015
lhumerus 11.5586 -13.1138 69.3268
lradius 70.9141
lwrist -31.3959
lhand -36.7138 28.5275
lfingers 7.12502
lthumb -9.79851 -301.72
rfemur -27.8181 -0.804369 17.6791
rtibia 31.9854
rfoot -4.58166 -5.36691
rtoes 17.3156
lfemur 9.10521 -7.72995 -13.2567
ltibia 25.3175
lfoot -11.7042 -6.51938
ltoes -35.6767
1806
root -0.58988 17.5987 -4.92331 1.53289 25.6302 -1.24313
lowerback 5.04951 -2.34928 -5.0407
upperback 0.815873 -3.3875 0.394689
thorax -1.67043 -1.66211 3.43903
lowerneck -24.1003 -7.50653 -12.958
upperneck 27.3829 -7.83795 6.7616
head 14.2436 -3.81397 3.36434
rclavicle 7.36994e-014 3.97569e-015
rhumerus 22.6674 -14.0535 -50.1128
rradius 68.2769
rwrist 49.6056
rhand -66.3163 -33.5031
rfingers 7.12502
rthumb -38.1417 -59.2636
lclavicle 7.36994e-014 3.97569e-015
lhumerus 9.72727 -12.9509 70.0973
lradius 70.6143
lwrist -30.9353
lhand -36.0901 26.6107
lfingers 7.12502
lthumb -9.19674 -303.61
rfemur -27.6639 -0.860116 17.8578
rtibia 31.9987
rfoot -4.77382 -5.31146
rtoes 18.0471
lfemur 8.68035 -7.9521 -12.9664
ltibia 25.9214
lfoot -11.0107 -6.93713
ltoes -36.0405
1807
root -0.613832 17.6151 -4.84161 1.56325 25.8708 -1.35478
lowerback 4.97575 -2.30406 -4.8596
upperback 0.971373 -3.30944 0.370834
thorax -1.48783 -1.6318 3.30064
lowerneck -24.0143 -7.61516 -12.9304
upperneck 27.4413 -8.00737 6.71868
head 14.2686 -3.89135 3.3092
rclavicle -3.38928e-014 -6.75868e-015
rhumerus 23.4431 -14.5854 -49.6815
rradius 66.7591
rwrist 49.43
rhand -66.0006 -32.9643
rfingers 7.12502
rthumb -37.8435 -58.8059
lclavicle -3.38928e-014 -6.75868e-015
lhumerus 7.93583 -12.8705 70.8271
lradius 70.1684
lwrist -30.9726
lhand -35.2881 26.3007
lfingers 7.12502
lthumb -8.42285 -303.887
rfemur -27.466 -0.846083 18.1465
rtibia 31.9926
rfoot -5.0672 -5.34495
rtoes 18.3408
lfemur 8.2907 -8.05594 -12.5402
ltibia 26.5189
lfoot -10.2375 -7.43272
ltoes -36.368
1808
root -0.632436 17.6296 -4.75953 1.6224 26.0938 -1.44642
lowerback 5.00517 -2.2628 -4.56368
upperback 0.960322 -3.24247 0.279585
thorax -1.54382 -1.59776 3.03973
lowerneck -23.6545 -7.66803 -12.9338
upperneck 27.5098 -8.15829 6.77803
head 14.2458 -3.95609 3.31097
rclavicle -8.10544e-014 -5.56597e-015
rhumerus 23.8933 -14.9658 -49.1662
rradius 65.412
rwrist 49.181
rhand -65.6403 -32.9416
rfingers 7.12502
rthumb -37.5031 -58.8743
lclavicle -8.10544e-014 -5.56597e-015
lhumerus 5.90608 -12.8913 71.4957
lradius 69.538
lwrist -31.1757
lhand -34.5439 26.8547
lfingers 7.12502
lthumb -7.70458 -303.306
rfemur -27.2854 -0.91567 18.418
rtibia 31.9763
rfoot -5.36466 -5.315
rtoes 18.4094
lfemur 7.87763 -8.12249 -12.1505
ltibia 27.115
lfoot -9.41027 -7.96644
ltoes -36.4464
1809
root -0.650879 17.6441 -4.67526 1.65748 26.3992 -1.46382
lowerback 5.16152 -2.25675 -4.33734
upperback 0.926281 -3.23229 0.20046
thorax -1.68443 -1.5895 2.84007
lowerneck -23.3109 -7.69966 -12.9972
upperneck 27.6237 -8.23659 6.78711
head 14.238 -4.00332 3.31771
rclavicle 2.05245e-014 5.56597e-015
rhumerus 24.3519 -15.3031 -48.4858
rradius 64.1464
rwrist 48.7896
rhand -65.3084 -32.2849
rfingers 7.12502
rthumb -37.1894 -58.3002
lclavicle 2.05245e-014 5.56597e-015
lhumerus 3.83715 -12.6196 72.2439
lradius 68.7735
lwrist -31.5266
lhand -33.5249 26.1855
lfingers 7.12502
lthumb -6.72092 -303.941
rfemur -27.0159 -1.02354 18.6002
rtibia 31.9718
rfoot -5.69079 -5.32475
rtoes 19.0467
lfemur 7.49768 -8.27228 -11.8467
ltibia 27.7243
lfoot -8.6095 -8.54195
ltoes -36.6232
1810
root -0.67292 17.658 -4.58967 1.6893 26.6546 -1.54328
lowerback 5.20617 -2.22178 -4.15792
upperback 0.997018 -3.17661 0.168079
thorax -1.65257 -1.56428 2.70358
lowerneck -23.193 -7.79264 -13.0414
upperneck 27.7844 -8.35453 6.7161
head 14.2974 -4.07191 3.27632
rclavicle 4.94477e-014 1.07344e-014
rhumerus 24.8848 -15.8025 -47.7747
rradius 62.9606
rwrist 48.3358
rhand -65.0183 -31.2395
rfingers 7.12502
rthumb -36.915 -57.3259
lclavicle 4.94477e-014 1.07344e-014
lhumerus 1.99332 -12.027 72.9981
lradius 67.8995
lwrist -31.8915
lhand -32.5623 25.2107
lfingers 7.12502
lthumb -5.79163 -304.888
rfemur -26.7974 -1.07337 18.8743
rtibia 32.0006
rfoot -5.98994 -5.381
rtoes 19.0617
lfemur 7.08319 -8.33312 -11.4527
ltibia 28.3487
lfoot -7.81173 -9.10217
ltoes -36.9138
1811
root -0.695982 17.6717 -4.50709 1.77403 26.8877 -1.61665
lowerback 5.23183 -2.16716 -3.95503
upperback 1.02473 -3.09421 0.111907
thorax -1.65861 -1.52425 2.52831
lowerneck -22.9608 -7.89572 -13.0786
upperneck 27.9205 -8.51054 6.65963
head 14.3274 -4.15617 3.23368
rclavicle -1.63003e-014 -6.36111e-015
rhumerus 25.3407 -16.3348 -47.1208
rradius 61.8418
rwrist 48.0189
rhand -64.8385 -30.96
rfingers 7.12502
rthumb -36.7448 -57.09
lclavicle -1.63003e-014 -6.36111e-015
lhumerus 0.229137 -11.4613 73.7209
lradius 66.77
lwrist -32.0563
lhand -32.5693 25.4865
lfingers 7.12502
lthumb -5.79844 -304.613
rfemur -26.6703 -1.13752 19.1445
rtibia 32.0565
rfoot -6.27767 -5.38354
rtoes 19.2247
lfemur 6.6062 -8.30786 -11.0383
ltibia 28.9816
lfoot -7.01773 -9.68648
ltoes -37.0515
1812
root -0.717847 17.6838 -4.43028 1.85483 27.2201 -1.62419
lowerback 5.35025 -2.12463 -3.73106
upperback 1.02728 -3.03241 -0.0117099
thorax -1.74507 -1.49248 2.278
lowerneck -22.5494 -7.94101 -13.0721
upperneck 27.9708 -8.64947 6.68786
head 14.2816 -4.2199 3.22529
rclavicle -2.36057e-014 9.54166e-015
rhumerus 25.8647 -16.9345 -46.5698
rradius 60.6724
rwrist 47.7761
rhand -64.6596 -30.5222
rfingers 7.12502
rthumb -36.5755 -56.6952
lclavicle -2.36057e-014 9.54166e-015
lhumerus -1.50477 -11.029 74.2909
lradius 65.5675
lwrist -32.0177
lhand -32.4822 25.8152
lfingers 7.12502
lthumb -5.71427 -304.282
rfemur -26.51 -1.36423 19.3472
rtibia 32.1043
rfoot -6.55233 -5.42314
rtoes 18.8276
lfemur 6.10823 -8.39453 -10.7211
ltibia 29.6375
lfoot -6.15703 -10.2335
ltoes -37.0298
1813
root -0.73868 17.6925 -4.35519 1.86913 27.531 -1.63344
lowerback 5.51591 -2.06883 -3.53094
upperback 1.06559 -2.95406 -0.0970163
thorax -1.81799 -1.45321 2.08025
lowerneck -22.2299 -7.95983 -13.0141
upperneck 28.0902 -8.70305 6.55377
head 14.2624 -4.26223 3.15877
rclavicle -1.48592e-014 3.18055e-015
rhumerus 26.5359 -17.5705 -46.0152
rradius 59.4849
rwrist 47.5273
rhand -64.3693 -29.5462
rfingers 7.12502
rthumb -36.3008 -55.7882
lclavicle -1.48592e-014 3.18055e-015
lhumerus -3.35771 -10.365 74.8814
lradius 64.7397
lwrist -31.9998
lhand -31.6414 25.4043
lfingers 7.12502
lthumb -4.90245 -304.672
rfemur -26.274 -1.47443 19.5186
rtibia 32.1298
rfoot -6.91099 -5.59586
rtoes 18.702
lfemur 5.67117 -8.52669 -10.4426
ltibia 30.2981
lfoot -5.17996 -10.7239
ltoes -36.6944
1814
root -0.761379 17.7044 -4.27659 1.85889 27.7501 -1.66948
lowerback 5.75366 -2.00388 -3.34442
upperback 1.08164 -2.86634 -0.145673
thorax -1.95126 -1.4079 1.93038
lowerneck -22.1164 -7.97701 -13.0438
upperneck 28.3827 -8.70389 6.43364
head 14.3623 -4.28656 3.1216
rclavicle 3.67752e-015 -1.66979e-014
rhumerus 27.2394 -18.1322 -45.4423
rradius 58.3436
rwrist 47.2022
rhand -64.0821 -29.011
rfingers 7.12502
rthumb -36.0287 -55.3205
lclavicle 3.67752e-015 -1.66979e-014
lhumerus -5.26158 -9.24169 75.5256
lradius 63.8877
lwrist -32.2008
lhand -31.055 25.1606
lfingers 7.12502
lthumb -4.33628 -304.904
rfemur -26.0194 -1.38467 19.7167
rtibia 32.1292
rfoot -7.27788 -5.82014
rtoes 18.9533
lfemur 5.25232 -8.57158 -10.1337
ltibia 30.9323
lfoot -4.14739 -11.191
ltoes -36.3558
1815
root -0.784056 17.7135 -4.19666 1.84911 27.9068 -1.69444
lowerback 5.98554 -1.92841 -3.15413
upperback 1.10995 -2.76366 -0.224801
thorax -2.07034 -1.3558 1.74475
lowerneck -22.0089 -7.98554 -13.0553
upperneck 28.6151 -8.70525 6.34429
head 14.4381 -4.30436 3.09283
rclavicle -9.93923e-016 1.43125e-014
rhumerus 27.823 -18.7136 -44.9259
rradius 57.344
rwrist 46.9515
rhand -63.9368 -29.2552
rfingers 7.12502
rthumb -35.8911 -55.5984
lclavicle -9.93923e-016 1.43125e-014
lhumerus -6.94712 -7.71602 76.1815
lradius 62.4995
lwrist -32.5226
lhand -30.7458 24.8979
lfingers 7.12502
lthumb -4.03764 -305.161
rfemur -25.7669 -1.32041 19.9191
rtibia 32.1122
rfoot -7.61044 -5.88353
rtoes 19.5012
lfemur 4.89791 -8.54713 -9.83476
ltibia 31.515
lfoot -3.20201 -11.5808
ltoes -36.2336
1816
root -0.803647 17.7231 -4.12046 1.87893 28.0749 -1.78581
lowerback 6.09454 -1.86367 -2.88736
upperback 1.1533 -2.66489 -0.296916
thorax -2.10736 -1.30794 1.5179
lowerneck -21.7944 -7.96249 -12.8772
upperneck 28.7111 -8.66926 6.04852
head 14.4029 -4.31454 2.95565
rclavicle -2.04748e-014 5.56597e-015
rhumerus 28.2564 -19.3491 -44.4625
rradius 56.6516
rwrist 46.6178
rhand -63.7367 -29.1429
rfingers 7.12502
rthumb -35.7015 -55.5322
lclavicle -2.04748e-014 5.56597e-015
lhumerus -8.52301 -6.11776 76.6695
lradius 61.0211
lwrist -32.6921
lhand -30.3571 24.7847
lfingers 7.12502
lthumb -3.66235 -305.267
rfemur -25.6022 -1.39038 20.1997
rtibia 32.0938
rfoot -7.86984 -5.81563
rtoes 19.3937
lfemur 4.51304 -8.51039 -9.47171
ltibia 32.0396
lfoot -2.26564 -11.9445
ltoes -35.5928
